<svg version="1.1" xmlns="http://www.w3.org/2000/svg" xmlns:xlink="http://www.w3.org/1999/xlink" x="0px" y="0px" width="100%" height="100%" viewBox="0 0 400 400" enable-background="new 0 0 400 400" xml:space="preserve">
      <circle id="Backing" opacity="0.7" fill="#FFFFFF" cx="199.997" cy="201.432" r="180.09"/>
		<g id="Compass_back">
			<g id="back">
				<path fill="#745433" d="M346.411,53.59L253.589,0H146.41L53.59,53.59L0,146.41v107.179l53.59,92.822L146.41,400h107.179l92.822-53.589L400,253.589V146.41L346.411,53.59z M387.46,168.401l-19.704,3.47l-0.494-2.818l19.701-3.466L387.46,168.401zM379.127,136.328l-18.805,6.841l-0.976-2.691l18.8-6.833L379.127,136.328z M365.347,106.19l-17.33,10.002l-1.424-2.481l17.325-9.993L365.347,106.19z M358.834,200c0,87.723-71.111,158.834-158.834,158.834c-87.722,0-158.835-71.111-158.835-158.834c0-87.722,71.113-158.835,158.835-158.835C287.723,41.165,358.834,112.278,358.834,200z M346.545,78.903l-15.328,12.861l-1.835-2.197l15.326-12.851L346.545,78.903z M323.291,55.297L310.43,70.624l-2.188-1.844l12.86-15.319L323.291,55.297zM296.29,36.088l-10.006,17.325l-2.474-1.435l10.006-17.32L296.29,36.088z M266.363,21.859l-6.846,18.797l-2.684-0.982l6.846-18.795L266.363,21.859z M234.421,13.041l-3.479,19.701l-2.811-0.501l3.479-19.698L234.421,13.041z M201.43,9.899v20.01h-2.859V9.899H201.43z M168.396,12.54l3.476,19.707l-2.814,0.497l-3.476-19.706L168.396,12.54z M136.325,20.876l6.842,18.803l-2.683,0.979l-6.845-18.805L136.325,20.876z M106.187,34.654l10.005,17.329l-2.473,1.429l-10.005-17.329L106.187,34.654zM78.9,53.458l12.861,15.329l-2.188,1.837l-12.861-15.33L78.9,53.458z M55.294,76.713L70.62,89.576l-1.837,2.188L53.458,78.902L55.294,76.713z M36.085,103.714L53.41,113.72l-1.427,2.475L34.655,106.19L36.085,103.714z M21.856,133.642l18.799,6.844l-0.977,2.684l-18.799-6.844L21.856,133.642z M13.04,165.584l19.701,3.476l-0.494,2.814l-19.704-3.476L13.04,165.584zM9.905,198.572l20.002,0.001l0.005,2.858L9.901,201.43L9.905,198.572z M12.546,231.602l19.698-3.47l0.5,2.813l-19.703,3.476L12.546,231.602z M20.882,263.675l18.796-6.842l0.98,2.687l-18.802,6.844L20.882,263.675z M34.661,293.811l17.322-9.998l1.429,2.473l-17.328,10.003L34.661,293.811z M53.463,321.098l15.324-12.855l1.837,2.186l-15.329,12.861L53.463,321.098zM76.718,344.703l12.858-15.321l2.188,1.837L78.9,346.545L76.718,344.703z M103.718,363.912l10.003-17.322l2.473,1.43l-10.008,17.328L103.718,363.912z M133.645,378.143l6.842-18.797l2.683,0.979l-6.845,18.802L133.645,378.143z M165.587,386.957l3.476-19.697l2.811,0.499l-3.476,19.704L165.587,386.957z M198.571,390.102V370.09h2.859v20.012H198.571L198.571,390.102zM231.604,387.46l-3.476-19.706l2.813-0.494l3.476,19.703L231.604,387.46z M263.675,379.124l-6.842-18.806l2.683-0.978l6.846,18.806L263.675,379.124z M293.813,365.346l-10.004-17.328l2.473-1.431l10.006,17.334L293.813,365.346z M321.1,346.545l-12.86-15.328l2.188-1.84l12.861,15.331L321.1,346.545z M344.705,323.291l-15.326-12.864l1.838-2.188l15.326,12.865L344.705,323.291z M363.915,296.29l-17.325-10.006l1.43-2.476l17.325,10.008L363.915,296.29z M378.145,266.363l-18.8-6.846l0.98-2.686l18.796,6.845L378.145,266.363z M386.96,234.421l-19.7-3.479l0.499-2.813l19.698,3.479L386.96,234.421zM390.098,201.434l-20.005-0.004l0.003-2.862l20.002,0.007V201.434z"/>
				<rect x="194.28" y="58.51" opacity="0.9" fill="#745433" enable-background="new    " width="11.435" height="282.994"/>
				<rect x="198.571" y="9.899" fill="#F4F4BD" width="2.859" height="20.01"/>
				<rect x="198.571" y="370.09" fill="#F4F4BD" width="2.859" height="20.012"/>
				<rect x="167.294" y="12.638" transform="matrix(0.9848 -0.1738 0.1738 0.9848 -1.3676 29.6712)" fill="#F4F4BD" width="2.857" height="20.012"/>
				<rect x="229.844" y="367.342" transform="matrix(-0.9849 0.1729 -0.1729 -0.9849 524.3154 709.016)" fill="#F4F4BD" width="2.858" height="20.01"/>
				<rect x="136.974" y="20.759" transform="matrix(0.9395 -0.3426 0.3426 0.9395 -2.1632 49.2814)" fill="#F4F4BD" width="2.856" height="20.009"/>
				<rect x="260.187" y="359.234" transform="matrix(-0.9394 0.3428 -0.3428 -0.9394 633.9497 626.4314)" fill="#F4F4BD" width="2.855" height="20.012"/>
				<rect x="108.529" y="34.024" transform="matrix(0.8659 -0.5003 0.5003 0.8659 -7.2771 60.9172)" fill="#F4F4BD" width="2.856" height="20.009"/>
				<polygon fill="#F4F4BD" points="286.281,346.587 283.809,348.018 293.813,365.346 296.287,363.921 		"/>
				<rect x="82.813" y="52.038" transform="matrix(0.7659 -0.643 0.643 0.7659 -20.1699 68.6916)" fill="#F4F4BD" width="2.857" height="20.009"/>
				<rect x="314.318" y="327.943" transform="matrix(-0.7654 0.6435 -0.6435 -0.7654 774.9059 393.4421)" fill="#F4F4BD" width="2.859" height="20.009"/>
				<rect x="60.615" y="74.232" transform="matrix(0.6429 -0.7659 0.7659 0.6429 -42.3646 77.6021)" fill="#F4F4BD" width="2.857" height="20.008"/>
				<rect x="336.538" y="305.751" transform="matrix(-0.6433 0.7656 -0.7656 -0.6433 797.126 260.1128)" fill="#F4F4BD" width="2.857" height="20.01"/>
				<rect x="42.608" y="99.948" transform="matrix(0.4994 -0.8664 0.8664 0.4994 -73.214 93.189)" fill="#F4F4BD" width="2.856" height="20.007"/>
				<rect x="354.546" y="280.03" transform="matrix(-0.5 0.866 -0.866 -0.5 785.1326 126.747)" fill="#F4F4BD" width="2.86" height="20.008"/>
				<rect x="29.334" y="128.398" transform="matrix(0.3421 -0.9397 0.9397 0.3421 -109.8116 119.9584)" fill="#F4F4BD" width="2.856" height="20.007"/>
				<rect x="367.799" y="251.565" transform="matrix(-0.3425 0.9395 -0.9395 -0.3425 741.449 4.274)" fill="#F4F4BD" width="2.86" height="20.008"/>
				<rect x="21.218" y="158.719" transform="matrix(0.173 -0.9849 0.9849 0.173 -147.4487 161.8456)" fill="#F4F4BD" width="2.857" height="20.005"/>
				<rect x="375.907" y="221.275" transform="matrix(-0.1746 0.9846 -0.9846 -0.1746 670.9575 -99.8681)" fill="#F4F4BD" width="2.857" height="20.005"/>
				<polygon fill="#F4F4BD" points="29.913,201.432 29.907,198.573 9.905,198.572 9.902,201.432 		"/>
				<rect x="370.094" y="198.57" fill="#F4F4BD" width="20.005" height="2.862"/>
				<polygon fill="#F4F4BD" points="32.743,230.945 32.244,228.132 12.546,231.602 13.04,234.421 		"/>
				<rect x="375.945" y="158.717" transform="matrix(0.1727 0.985 -0.985 0.1727 478.3779 -232.1248)" fill="#F4F4BD" width="2.861" height="20.008"/>
				<polygon fill="#F4F4BD" points="40.658,259.52 39.678,256.833 20.882,263.675 21.856,266.363 		"/>
				<polygon fill="#F4F4BD" points="359.348,140.478 360.322,143.169 379.127,136.328 378.146,133.645 		"/>
				<polygon fill="#F4F4BD" points="53.413,286.284 51.983,283.813 34.661,293.811 36.085,296.287 		"/>
				<polygon fill="#F4F4BD" points="346.593,113.711 348.017,116.193 365.347,106.19 363.918,103.718 		"/>
				<polygon fill="#F4F4BD" points="70.624,310.427 68.787,308.241 53.463,321.098 55.294,323.288 		"/>
				<polygon fill="#F4F4BD" points="329.382,89.567 331.217,91.765 346.545,78.903 344.708,76.716 		"/>
				<polygon fill="#F4F4BD" points="91.765,331.219 89.576,329.382 76.718,344.703 78.9,346.545 		"/>
				<polygon fill="#F4F4BD" points="308.241,68.779 310.43,70.624 323.291,55.297 321.103,53.46 		"/>
				<polygon fill="#F4F4BD" points="116.194,348.02 113.721,346.59 103.718,363.912 106.187,365.348 		"/>
				<polygon fill="#F4F4BD" points="283.813,51.978 286.284,53.413 296.29,36.088 293.816,34.658 		"/>
				<polygon fill="#F4F4BD" points="143.17,360.325 140.487,359.346 133.645,378.143 136.325,379.127 		"/>
				<polygon fill="#F4F4BD" points="256.835,39.674 259.52,40.656 266.363,21.859 263.682,20.879 		"/>
				<polygon fill="#F4F4BD" points="171.874,367.759 169.063,367.26 165.587,386.957 168.398,387.463 		"/>
				<polygon fill="#F4F4BD" points="228.132,32.241 230.941,32.742 234.421,13.041 231.609,12.543 		"/>
				<rect x="151.403" y="65.11" opacity="0.9" fill="#745433" enable-background="new    " width="11.435" height="269.779"/>
				<rect x="108.523" y="87.435" opacity="0.9" fill="#745433" enable-background="new    " width="11.435" height="225.125"/>
				<rect x="65.643" y="140.963" opacity="0.9" fill="#745433" enable-background="new    " width="11.435" height="118.075"/>
				<rect x="237.162" y="65.11" opacity="0.9" fill="#745433" enable-background="new    " width="11.436" height="269.779"/>
				<rect x="280.042" y="87.44" opacity="0.9" fill="#745433" enable-background="new    " width="11.435" height="225.119"/>
				<rect x="322.922" y="140.963" opacity="0.9" fill="#745433" enable-background="new    " width="11.437" height="116.422"/>
			</g>
		</g>
   </svg>
<svg version="1.1" xmlns="http://www.w3.org/2000/svg" xmlns:xlink="http://www.w3.org/1999/xlink" x="0px" y="0px" width="100%" height="100%" viewBox="0 0 400 400" enable-background="new 0 0 400 400" xml:space="preserve" class="needle">
      <g id="Compass_needle">
			<g id="needle">
				<g>
					<path fill="#745433" d="M215.777,192.303l77.709-77.707v-8.084l-8.084-0.001l-77.709,77.708c-6.553-3.194-14.674-2.088-20.116,3.357c-5.447,5.445-6.554,13.564-3.36,20.117l-77.708,77.709l0.001,8.086h8.084l77.708-77.709c6.554,3.193,14.677,2.088,20.12-3.355C217.866,206.98,218.973,198.858,215.777,192.303z"/>
					<path fill="#745433" d="M120.516,307.779H92.22l-0.006-28.295l76.112-76.112c-1-9.39,2.207-18.968,9.146-25.905c6.805-6.808,16.324-10.161,25.896-9.136l76.116-76.116l28.297,0.006v28.296l-76.109,76.108c1,9.391-2.205,18.969-9.143,25.902c-6.008,6.012-14,9.322-22.503,9.322c-0.001,0-0.001,0-0.001,0c-1.133,0-2.267-0.062-3.395-0.185L120.516,307.779z"/>
				</g>
			</g>
			<g>
				<path fill="none" d="M207.705,192.291c-4.255-4.256-11.157-4.256-15.413,0c-4.258,4.258-4.258,11.159-0.001,15.417c4.257,4.257,11.159,4.257,15.414-0.003C211.965,203.45,211.965,196.548,207.705,192.291z"/>
				<path fill="#ED5665" d="M207.705,192.291c4.26,4.257,4.26,11.159,0,15.414l4.718,4.718c5.443-5.442,6.55-13.564,3.354-20.12l77.709-77.707v-8.084l-8.084-0.001l-77.709,77.708c-6.553-3.194-14.674-2.088-20.116,3.357l4.715,4.715C196.548,188.035,203.45,188.035,207.705,192.291z"/>
				<path fill="#F5F7FA" d="M207.705,207.705c-4.255,4.26-11.157,4.26-15.414,0.003c-4.257-4.258-4.257-11.159,0.001-15.417l-4.715-4.715c-5.447,5.445-6.554,13.564-3.36,20.117l-77.708,77.709l0.001,8.086h8.084l77.708-77.709c6.554,3.193,14.677,2.088,20.12-3.355L207.705,207.705z"/>
			</g>
		</g>
   </svg>
